RobotoExtremo-opsz144-wdth151.ufo
<glyph name="plus" format="2">
  <advance width="1024"/>
  <unicode hex="002B"/>
  <outline>
    <contour>
      <point x="57" y="626" type="line"/>
      <point x="57" y="722" type="line"/>
      <point x="967" y="722" type="line"/>
      <point x="967" y="626" type="line"/>
    </contour>
    <contour>
      <point x="458" y="208" type="line"/>
      <point x="458" y="1140" type="line"/>
      <point x="566" y="1140" type="line"/>
      <point x="566" y="208" type="line"/>
    </contour>
  </outline>
</glyph>
<glyph name="two" format="2">
  <advance width="1463"/>
  <unicode hex="0032"/>
  <outline>
    <contour>
      <point x="194" y="0" type="line"/>
      <point x="194" y="74" type="line"/>
      <point x="843" y="662" type="line" smooth="yes"/>
      <point x="957" y="766"/>
      <point x="1118" y="982"/>
      <point x="1117" y="1093" type="qcurve" smooth="yes"/>
      <point x="1116" y="1240"/>
      <point x="942.0" y="1379.0"/>
      <point x="736" y="1379" type="qcurve" smooth="yes"/>
      <point x="530" y="1379"/>
      <point x="308.0" y="1235.0"/>
      <point x="308" y="1075" type="qcurve" smooth="yes"/>
      <point x="308" y="1055" type="line"/>
      <point x="199" y="1055" type="line"/>
      <point x="199" y="1075" type="line" smooth="yes"/>
      <point x="199" y="1273"/>
      <point x="490" y="1480"/>
      <point x="737" y="1480.0" type="qcurve" smooth="yes"/>
      <point x="982" y="1480"/>
      <point x="1233" y="1275"/>
      <point x="1233.0" y="1120" type="qcurve" smooth="yes"/>
      <point x="1233" y="960"/>
      <point x="1059" y="728"/>
      <point x="907" y="590" type="qcurve" smooth="yes"/>
      <point x="365" y="100" type="line"/>
      <point x="1282" y="100" type="line"/>
      <point x="1282" y="0" type="line"/>
    </contour>
  </outline>
</glyph>
<glyph name="five" format="2">
  <advance width="1463"/>
  <unicode hex="0035"/>
  <outline>
    <contour>
      <point x="195" y="368" type="qcurve" smooth="yes"/>
      <point x="195" y="388" type="line"/>
      <point x="306" y="388" type="line"/>
      <point x="306" y="368" type="line" smooth="yes"/>
      <point x="306" y="222"/>
      <point x="561" y="74"/>
      <point x="768" y="74.0" type="qcurve" smooth="yes"/>
      <point x="982.0" y="74.0"/>
      <point x="1209.0" y="281.0"/>
      <point x="1209.0" y="473" type="qcurve" smooth="yes"/>
      <point x="1209" y="676"/>
      <point x="969.0" y="859.0"/>
      <point x="788" y="859" type="qcurve" smooth="yes"/>
      <point x="614" y="859"/>
      <point x="402" y="732"/>
      <point x="354" y="671" type="qcurve"/>
      <point x="260" y="715" type="line"/>
      <point x="360" y="1456" type="line"/>
      <point x="1241" y="1456" type="line"/>
      <point x="1241" y="1360" type="line"/>
      <point x="444" y="1360" type="line"/>
      <point x="368" y="809" type="line"/>
      <point x="408" y="854"/>
      <point x="635" y="951"/>
      <point x="802" y="951.0" type="qcurve" smooth="yes"/>
      <point x="1020" y="951"/>
      <point x="1322" y="718"/>
      <point x="1321" y="480" type="qcurve" smooth="yes"/>
      <point x="1320" y="242"/>
      <point x="1019.0" y="-22.0"/>
      <point x="767" y="-22" type="qcurve" smooth="yes"/>
      <point x="492" y="-22"/>
      <point x="195" y="194.0"/>
    </contour>
  </outline>
</glyph>
<glyph name="eight" format="2">
  <advance width="1463"/>
  <unicode hex="0038"/>
  <outline>
    <contour>
      <point x="160" y="387" type="qcurve" smooth="yes"/>
      <point x="160" y="535"/>
      <point x="362" y="721"/>
      <point x="519" y="749" type="qcurve"/>
      <point x="519" y="753" type="line"/>
      <point x="384" y="785"/>
      <point x="220" y="966"/>
      <point x="220.0" y="1112.0" type="qcurve" smooth="yes"/>
      <point x="220" y="1282"/>
      <point x="495" y="1479"/>
      <point x="733" y="1479" type="qcurve" smooth="yes"/>
      <point x="971.0" y="1479.0"/>
      <point x="1244" y="1272"/>
      <point x="1244.0" y="1112.0" type="qcurve" smooth="yes"/>
      <point x="1244" y="958"/>
      <point x="1101" y="786"/>
      <point x="975" y="756" type="qcurve"/>
      <point x="975" y="752" type="line"/>
      <point x="1129" y="721"/>
      <point x="1304" y="538"/>
      <point x="1304" y="387" type="qcurve" smooth="yes"/>
      <point x="1304" y="193"/>
      <point x="997" y="-23.0"/>
      <point x="733" y="-23" type="qcurve" smooth="yes"/>
      <point x="469" y="-23"/>
      <point x="160" y="193"/>
    </contour>
    <contour>
      <point x="274" y="390" type="qcurve" smooth="yes"/>
      <point x="274" y="243"/>
      <point x="518" y="71"/>
      <point x="732" y="71" type="qcurve" smooth="yes"/>
      <point x="946.0" y="71.0"/>
      <point x="1190" y="238"/>
      <point x="1190" y="389" type="qcurve" smooth="yes"/>
      <point x="1190" y="533"/>
      <point x="945.0" y="698.0"/>
      <point x="732" y="698" type="qcurve" smooth="yes"/>
      <point x="519" y="698"/>
      <point x="274" y="533"/>
    </contour>
    <contour>
      <point x="334.0" y="1110.0" type="qcurve" smooth="yes"/>
      <point x="334" y="961"/>
      <point x="553" y="792"/>
      <point x="732" y="792" type="qcurve" smooth="yes"/>
      <point x="911.0" y="792.0"/>
      <point x="1130" y="961"/>
      <point x="1130.0" y="1110.0" type="qcurve" smooth="yes"/>
      <point x="1130" y="1229"/>
      <point x="910.0" y="1385.0"/>
      <point x="732" y="1385" type="qcurve" smooth="yes"/>
      <point x="554" y="1385"/>
      <point x="334" y="1237"/>
    </contour>
  </outline>
</glyph>
<glyph name="colon" format="2">
  <advance width="526"/>
  <unicode hex="003A"/>
  <outline>
    <contour>
      <point x="175" y="74" type="qcurve" smooth="yes"/>
      <point x="175" y="110"/>
      <point x="221" y="159"/>
      <point x="263" y="159" type="qcurve" smooth="yes"/>
      <point x="305" y="159"/>
      <point x="351" y="110"/>
      <point x="351" y="74" type="qcurve" smooth="yes"/>
      <point x="351" y="37"/>
      <point x="305" y="-12"/>
      <point x="263" y="-12" type="qcurve" smooth="yes"/>
      <point x="221" y="-12"/>
      <point x="175" y="38"/>
    </contour>
    <contour>
      <point x="175" y="829" type="qcurve" smooth="yes"/>
      <point x="175" y="865"/>
      <point x="221" y="914"/>
      <point x="263" y="914" type="qcurve" smooth="yes"/>
      <point x="305" y="914"/>
      <point x="351" y="865"/>
      <point x="351" y="829" type="qcurve" smooth="yes"/>
      <point x="351" y="792"/>
      <point x="305" y="743"/>
      <point x="263" y="743" type="qcurve" smooth="yes"/>
      <point x="221" y="743"/>
      <point x="175" y="793"/>
    </contour>
  </outline>
</glyph>
<glyph name="A" format="2">
  <advance width="1512"/>
  <unicode hex="0041"/>
  <anchor x="751.0" y="1432.0" name="top"/>
  <outline>
    <contour>
      <point x="-30" y="0" type="line"/>
      <point x="699" y="1455" type="line"/>
      <point x="804" y="1455" type="line"/>
      <point x="1542" y="0" type="line"/>
      <point x="1425" y="0" type="line"/>
      <point x="801" y="1266" type="line"/>
      <point x="785" y="1297"/>
      <point x="767" y="1332"/>
      <point x="753" y="1362" type="qcurve"/>
      <point x="750" y="1362" type="line"/>
      <point x="735" y="1331"/>
      <point x="718" y="1297"/>
      <point x="702" y="1265" type="qcurve" smooth="yes"/>
      <point x="83" y="0" type="line"/>
    </contour>
    <contour>
      <point x="249" y="458" type="line"/>
      <point x="296" y="550" type="line"/>
      <point x="1205" y="550" type="line"/>
      <point x="1253" y="458" type="line"/>
    </contour>
  </outline>
</glyph>
<glyph name="F" format="2">
  <advance width="1274"/>
  <unicode hex="0046"/>
  <outline>
    <contour>
      <point x="230" y="0" type="line"/>
      <point x="230" y="1456" type="line"/>
      <point x="1253" y="1456" type="line"/>
      <point x="1253" y="1356" type="line"/>
      <point x="338" y="1356" type="line"/>
      <point x="338" y="784" type="line"/>
      <point x="1188" y="784" type="line"/>
      <point x="1188" y="684" type="line"/>
      <point x="338" y="684" type="line"/>
      <point x="338" y="0" type="line"/>
    </contour>
  </outline>
</glyph>
<glyph name="M" format="2">
  <advance width="2284"/>
  <unicode hex="004D"/>
  <outline>
    <contour>
      <point x="230" y="0" type="line"/>
      <point x="230" y="1456" type="line"/>
      <point x="326" y="1456" type="line"/>
      <point x="1100" y="207" type="line" smooth="yes"/>
      <point x="1122" y="171"/>
      <point x="1136" y="145"/>
      <point x="1143" y="132" type="qcurve"/>
      <point x="1145" y="132" type="line"/>
      <point x="1152" y="145"/>
      <point x="1166" y="171"/>
      <point x="1188" y="207" type="qcurve" smooth="yes"/>
      <point x="1950" y="1456" type="line"/>
      <point x="2054" y="1456" type="line"/>
      <point x="2054" y="0" type="line"/>
      <point x="1945" y="0" type="line"/>
      <point x="1949" y="1186" type="line" smooth="yes"/>
      <point x="1949" y="1204"/>
      <point x="1949" y="1228"/>
      <point x="1949" y="1246" type="qcurve"/>
      <point x="1946" y="1246" type="line"/>
      <point x="1940" y="1232"/>
      <point x="1921" y="1200"/>
      <point x="1913" y="1186" type="qcurve" smooth="yes"/>
      <point x="1188" y="0" type="line"/>
      <point x="1099" y="0" type="line"/>
      <point x="369" y="1177" type="line" smooth="yes"/>
      <point x="355" y="1199"/>
      <point x="341" y="1223"/>
      <point x="330" y="1246" type="qcurve"/>
      <point x="327" y="1246" type="line"/>
      <point x="327" y="1222"/>
      <point x="327" y="1199"/>
      <point x="327" y="1175" type="qcurve" smooth="yes"/>
      <point x="332" y="0" type="line"/>
    </contour>
  </outline>
</glyph>
<glyph name="N" format="2">
  <advance width="1742"/>
  <unicode hex="004E"/>
  <anchor x="861" y="1432" name="top"/>
  <outline>
    <contour>
      <point x="230" y="0" type="line"/>
      <point x="230" y="1456" type="line"/>
      <point x="342" y="1456" type="line"/>
      <point x="1350" y="225" type="line" smooth="yes"/>
      <point x="1371" y="199"/>
      <point x="1401.0" y="160"/>
      <point x="1405" y="155" type="qcurve"/>
      <point x="1409" y="155" type="line"/>
      <point x="1409" y="177"/>
      <point x="1409.0" y="212.0"/>
      <point x="1409" y="234" type="qcurve" smooth="yes"/>
      <point x="1409" y="1456" type="line"/>
      <point x="1512" y="1456" type="line"/>
      <point x="1512" y="0" type="line"/>
      <point x="1402" y="0" type="line"/>
      <point x="399" y="1224" type="line" smooth="yes"/>
      <point x="372" y="1257"/>
      <point x="343" y="1295.0"/>
      <point x="336" y="1306" type="qcurve"/>
      <point x="333" y="1306" type="line"/>
      <point x="333" y="1290"/>
      <point x="333.0" y="1236.0"/>
      <point x="333" y="1220" type="qcurve" smooth="yes"/>
      <point x="333" y="0" type="line"/>
    </contour>
  </outline>
</glyph>
<glyph name="U" format="2">
  <advance width="1766"/>
  <unicode hex="0055"/>
  <anchor x="907" y="1432" name="top"/>
  <outline>
    <contour>
      <point x="200" y="562" type="qcurve" smooth="yes"/>
      <point x="200" y="1456" type="line"/>
      <point x="310" y="1456" type="line"/>
      <point x="310" y="562" type="line" smooth="yes"/>
      <point x="310" y="312"/>
      <point x="636" y="77"/>
      <point x="904" y="77" type="qcurve" smooth="yes"/>
      <point x="1182" y="77"/>
      <point x="1456.0" y="309.0"/>
      <point x="1456" y="562" type="qcurve" smooth="yes"/>
      <point x="1456" y="1456" type="line"/>
      <point x="1566" y="1456" type="line"/>
      <point x="1566" y="562" type="line" smooth="yes"/>
      <point x="1566.0" y="276.0"/>
      <point x="1230" y="-24"/>
      <point x="904" y="-24" type="qcurve" smooth="yes"/>
      <point x="588" y="-24"/>
      <point x="200" y="265"/>
    </contour>
  </outline>
</glyph>
<glyph name="v" format="2">
  <advance width="1095"/>
  <unicode hex="0076"/>
  <outline>
    <contour>
      <point x="-20" y="914" type="line"/>
      <point x="107" y="914" type="line"/>
      <point x="505" y="190" type="line" smooth="yes"/>
      <point x="525" y="153"/>
      <point x="536" y="135"/>
      <point x="551" y="110" type="qcurve"/>
      <point x="556" y="110" type="line"/>
      <point x="570" y="134"/>
      <point x="580" y="151"/>
      <point x="600" y="188" type="qcurve" smooth="yes"/>
      <point x="999" y="914" type="line"/>
      <point x="1115" y="914" type="line"/>
      <point x="606" y="0" type="line"/>
      <point x="489" y="0" type="line"/>
    </contour>
  </outline>
</glyph>
<glyph name="w" format="2">
  <advance width="1811"/>
  <unicode hex="0077"/>
  <outline>
    <contour>
      <point x="10" y="914" type="line"/>
      <point x="123" y="914" type="line"/>
      <point x="447" y="137" type="line" smooth="yes"/>
      <point x="454" y="120"/>
      <point x="461" y="103"/>
      <point x="467" y="87" type="qcurve"/>
      <point x="469" y="87" type="line"/>
      <point x="476" y="103"/>
      <point x="483" y="120"/>
      <point x="491" y="137" type="qcurve" smooth="yes"/>
      <point x="843" y="914" type="line"/>
      <point x="981" y="914" type="line"/>
      <point x="1331" y="135" type="line" smooth="yes"/>
      <point x="1339" y="118"/>
      <point x="1347" y="100"/>
      <point x="1352" y="87" type="qcurve"/>
      <point x="1354" y="87" type="line"/>
      <point x="1359" y="100"/>
      <point x="1366" y="118"/>
      <point x="1373" y="135" type="qcurve" smooth="yes"/>
      <point x="1695" y="914" type="line"/>
      <point x="1801" y="914" type="line"/>
      <point x="1421" y="0" type="line"/>
      <point x="1276" y="0" type="line"/>
      <point x="925" y="768" type="line" smooth="yes"/>
      <point x="919" y="781"/>
      <point x="911" y="798"/>
      <point x="908" y="807" type="qcurve"/>
      <point x="906" y="807" type="line"/>
      <point x="903" y="798"/>
      <point x="896" y="781"/>
      <point x="890" y="768" type="qcurve" smooth="yes"/>
      <point x="544" y="0" type="line"/>
      <point x="392" y="0" type="line"/>
    </contour>
  </outline>
</glyph>
<glyph name="y" format="2">
  <advance width="1095"/>
  <unicode hex="0079"/>
  <anchor x="555" y="914" name="top"/>
  <outline>
    <contour>
      <point x="-39" y="-403" type="qcurve"/>
      <point x="-39" y="-300" type="line"/>
      <point x="19" y="-323"/>
      <point x="103" y="-344"/>
      <point x="142" y="-344" type="qcurve" smooth="yes"/>
      <point x="229" y="-344"/>
      <point x="372" y="-216"/>
      <point x="488" y="-1" type="qcurve" smooth="yes"/>
      <point x="489" y="1" type="line"/>
      <point x="-20" y="914" type="line"/>
      <point x="102" y="914" type="line"/>
      <point x="506" y="190" type="line" smooth="yes"/>
      <point x="525" y="155"/>
      <point x="536" y="135"/>
      <point x="553" y="105" type="qcurve"/>
      <point x="554" y="105" type="line"/>
      <point x="570" y="134"/>
      <point x="581" y="154"/>
      <point x="600" y="188" type="qcurve" smooth="yes"/>
      <point x="1004" y="914" type="line"/>
      <point x="1115" y="914" type="line"/>
      <point x="521" y="-140" type="line" smooth="yes"/>
      <point x="441" y="-282"/>
      <point x="264" y="-436"/>
      <point x="151" y="-436" type="qcurve" smooth="yes"/>
      <point x="90" y="-436"/>
      <point x="15" y="-420"/>
    </contour>
  </outline>
</glyph>
<glyph name="z" format="2">
  <advance width="1031"/>
  <unicode hex="007A"/>
  <outline>
    <contour>
      <point x="40" y="0" type="line"/>
      <point x="40" y="85" type="line"/>
      <point x="830" y="820" type="line"/>
      <point x="49" y="820" type="line"/>
      <point x="49" y="914" type="line"/>
      <point x="973" y="914" type="line"/>
      <point x="973" y="829" type="line"/>
      <point x="184" y="94" type="line"/>
      <point x="991" y="94" type="line"/>
      <point x="991" y="0" type="line"/>
    </contour>
  </outline>
</glyph>
<glyph name="section" format="2">
  <advance width="1642"/>
  <unicode hex="00A7"/>
  <guideline x="0.0" y="1658.0" angle="0.0" identifier="QzZ5gIiCyn"/>
  <guideline x="0.0" y="578.0" angle="0.0" identifier="9Hxjf2sdFw"/>
  <outline>
    <contour>
      <point x="913" y="147" type="qcurve"/>
      <point x="913" y="238" type="line"/>
      <point x="1139" y="240"/>
      <point x="1382" y="362"/>
      <point x="1382" y="473" type="qcurve" smooth="yes"/>
      <point x="1382" y="554"/>
      <point x="1131" y="683"/>
      <point x="794" y="774" type="qcurve" smooth="yes"/>
      <point x="470" y="862"/>
      <point x="229" y="1026"/>
      <point x="229" y="1158" type="qcurve" smooth="yes"/>
      <point x="229" y="1318"/>
      <point x="532" y="1491"/>
      <point x="814" y="1491" type="qcurve" smooth="yes"/>
      <point x="1099" y="1491"/>
      <point x="1406" y="1304"/>
      <point x="1406" y="1130" type="qcurve"/>
      <point x="1296" y="1130" type="line"/>
      <point x="1296" y="1261"/>
      <point x="1046" y="1401"/>
      <point x="814" y="1401" type="qcurve" smooth="yes"/>
      <point x="584" y="1401"/>
      <point x="336" y="1277"/>
      <point x="336" y="1161" type="qcurve" smooth="yes"/>
      <point x="336" y="1073"/>
      <point x="556" y="947"/>
      <point x="852" y="868" type="qcurve" smooth="yes"/>
      <point x="1219" y="769"/>
      <point x="1492" y="601"/>
      <point x="1492" y="476" type="qcurve" smooth="yes"/>
      <point x="1492" y="325"/>
      <point x="1192" y="154"/>
    </contour>
    <contour>
      <point x="722" y="886" type="qcurve"/>
      <point x="722" y="806" type="line"/>
      <point x="502" y="806"/>
      <point x="266" y="690"/>
      <point x="266" y="583" type="qcurve" smooth="yes"/>
      <point x="266" y="490"/>
      <point x="505" y="361"/>
      <point x="825" y="282" type="qcurve" smooth="yes"/>
      <point x="1157" y="199"/>
      <point x="1405" y="20"/>
      <point x="1405" y="-138" type="qcurve" smooth="yes"/>
      <point x="1405" y="-317"/>
      <point x="1084" y="-509"/>
      <point x="786" y="-509" type="qcurve" smooth="yes"/>
      <point x="480" y="-509"/>
      <point x="150" y="-300"/>
      <point x="150" y="-105" type="qcurve"/>
      <point x="260" y="-103" type="line"/>
      <point x="260" y="-252"/>
      <point x="533" y="-413"/>
      <point x="786" y="-413" type="qcurve" smooth="yes"/>
      <point x="1031" y="-413"/>
      <point x="1295" y="-272"/>
      <point x="1295" y="-141" type="qcurve" smooth="yes"/>
      <point x="1295" y="-28"/>
      <point x="1069" y="110"/>
      <point x="767" y="182" type="qcurve" smooth="yes"/>
      <point x="418" y="266"/>
      <point x="157" y="436"/>
      <point x="157" y="580" type="qcurve" smooth="yes"/>
      <point x="157" y="727"/>
      <point x="450" y="886"/>
    </contour>
  </outline>
</glyph>
<glyph name="dieresis" format="2">
  <advance width="1024"/>
  <unicode hex="00A8"/>
  <outline>
    <contour>
      <point x="172" y="1046" type="qcurve" smooth="yes"/>
      <point x="172" y="1010"/>
      <point x="232" y="964"/>
      <point x="279" y="964" type="qcurve" smooth="yes"/>
      <point x="326" y="964"/>
      <point x="387" y="1010"/>
      <point x="387" y="1046" type="qcurve" smooth="yes"/>
      <point x="387" y="1084"/>
      <point x="326" y="1132"/>
      <point x="279" y="1132" type="qcurve" smooth="yes"/>
      <point x="232" y="1132"/>
      <point x="172" y="1084"/>
    </contour>
    <contour>
      <point x="637" y="1044" type="qcurve" smooth="yes"/>
      <point x="637" y="1008"/>
      <point x="697" y="962.0"/>
      <point x="744" y="962.0" type="qcurve" smooth="yes"/>
      <point x="791" y="962.0"/>
      <point x="852" y="1008"/>
      <point x="852" y="1044" type="qcurve" smooth="yes"/>
      <point x="852" y="1082"/>
      <point x="791" y="1130"/>
      <point x="744" y="1130" type="qcurve" smooth="yes"/>
      <point x="697" y="1130"/>
      <point x="637" y="1082"/>
    </contour>
  </outline>
</glyph>
<glyph name="macron" format="2">
  <advance width="1024"/>
  <unicode hex="00AF"/>
  <outline>
    <contour>
      <point x="786" y="1112" type="line"/>
      <point x="786" y="1014" type="line"/>
      <point x="238" y="1014" type="line"/>
      <point x="238" y="1112" type="line"/>
    </contour>
  </outline>
</glyph>
<glyph name="twosuperior" format="2">
  <advance width="904"/>
  <unicode hex="00B2"/>
  <outline>
    <contour>
      <point x="131" y="684" type="line"/>
      <point x="131" y="772" type="line"/>
      <point x="511" y="1053" type="line" smooth="yes"/>
      <point x="595" y="1115"/>
      <point x="670" y="1206"/>
      <point x="670" y="1246" type="qcurve" smooth="yes"/>
      <point x="670" y="1309"/>
      <point x="557" y="1377"/>
      <point x="451" y="1377" type="qcurve" smooth="yes"/>
      <point x="337" y="1377"/>
      <point x="215" y="1289"/>
      <point x="216" y="1208" type="qcurve"/>
      <point x="117" y="1208" type="line"/>
      <point x="117" y="1336"/>
      <point x="293" y="1474"/>
      <point x="456" y="1474" type="qcurve" smooth="yes"/>
      <point x="611" y="1474"/>
      <point x="777" y="1362"/>
      <point x="777" y="1257" type="qcurve" smooth="yes"/>
      <point x="777" y="1188"/>
      <point x="688" y="1062"/>
      <point x="586" y="988" type="qcurve" smooth="yes"/>
      <point x="299" y="779" type="line"/>
      <point x="795" y="779" type="line"/>
      <point x="795" y="684" type="line"/>
    </contour>
  </outline>
</glyph>
<glyph name="threesuperior" format="2">
  <advance width="927"/>
  <unicode hex="00B3"/>
  <outline>
    <contour>
      <point x="117" y="900" type="qcurve"/>
      <point x="224" y="900" type="line"/>
      <point x="224" y="830"/>
      <point x="348" y="754"/>
      <point x="464" y="754" type="qcurve" smooth="yes"/>
      <point x="582" y="754"/>
      <point x="708" y="832"/>
      <point x="708" y="905" type="qcurve" smooth="yes"/>
      <point x="708" y="973"/>
      <point x="572" y="1046"/>
      <point x="445" y="1046" type="qcurve" smooth="yes"/>
      <point x="277" y="1046" type="line"/>
      <point x="277" y="1134" type="line"/>
      <point x="445" y="1134" type="line" smooth="yes"/>
      <point x="564" y="1134"/>
      <point x="691" y="1197"/>
      <point x="691" y="1255" type="qcurve" smooth="yes"/>
      <point x="691" y="1316"/>
      <point x="573" y="1381"/>
      <point x="463" y="1381" type="qcurve" smooth="yes"/>
      <point x="350" y="1381"/>
      <point x="229" y="1311"/>
      <point x="229" y="1246" type="qcurve"/>
      <point x="132" y="1246" type="line"/>
      <point x="132" y="1357"/>
      <point x="303" y="1477"/>
      <point x="462" y="1477" type="qcurve" smooth="yes"/>
      <point x="620" y="1477"/>
      <point x="789" y="1367"/>
      <point x="789" y="1265" type="qcurve" smooth="yes"/>
      <point x="789" y="1202"/>
      <point x="729" y="1110"/>
      <point x="661" y="1088" type="qcurve"/>
      <point x="735" y="1065"/>
      <point x="808" y="963"/>
      <point x="808" y="897" type="qcurve" smooth="yes"/>
      <point x="808" y="782"/>
      <point x="632" y="658"/>
      <point x="469" y="658" type="qcurve" smooth="yes"/>
      <point x="299" y="658"/>
      <point x="117" y="783"/>
    </contour>
  </outline>
</glyph>
<glyph name="acute" format="2">
  <advance width="1024"/>
  <unicode hex="00B4"/>
  <outline>
    <contour>
      <point x="369" y="1046" type="line"/>
      <point x="625" y="1326" type="line"/>
      <point x="728" y="1247" type="line"/>
      <point x="442" y="991" type="line"/>
    </contour>
  </outline>
</glyph>
<glyph name="paragraph" format="2">
  <advance width="1470"/>
  <unicode hex="00B6"/>
  <guideline x="0.0" y="901.0" angle="0.0" identifier="27539Lsr1A"/>
  <guideline x="0.0" y="555.0" angle="0.0" identifier="e34wUdCmXR"/>
  <outline>
    <contour>
      <point x="991" y="-146" type="line"/>
      <point x="881" y="-146" type="line"/>
      <point x="881" y="825" type="line"/>
      <point x="611" y="825" type="line" smooth="yes"/>
      <point x="358" y="825"/>
      <point x="86" y="988"/>
      <point x="86" y="1140" type="qcurve" smooth="yes"/>
      <point x="86" y="1292"/>
      <point x="358" y="1456"/>
      <point x="611" y="1456" type="qcurve" smooth="yes"/>
      <point x="991" y="1456" type="line"/>
    </contour>
    <contour>
      <point x="1133" y="1459" type="line"/>
      <point x="1240" y="1459" type="line"/>
      <point x="1240" y="-146" type="line"/>
      <point x="1133" y="-146" type="line"/>
    </contour>
  </outline>
</glyph>
<glyph name="cedilla" format="2">
  <advance width="1024"/>
  <unicode hex="00B8"/>
  <outline>
    <contour>
      <point x="390" y="42" type="line"/>
      <point x="489" y="42" type="line"/>
      <point x="461" y="-63" type="line"/>
      <point x="610" y="-82"/>
      <point x="744" y="-154"/>
      <point x="744" y="-216" type="qcurve" smooth="yes"/>
      <point x="744" y="-322"/>
      <point x="513" y="-435"/>
      <point x="298" y="-435" type="qcurve"/>
      <point x="292" y="-351" type="line"/>
      <point x="461" y="-351"/>
      <point x="642" y="-287"/>
      <point x="642" y="-228" type="qcurve" smooth="yes"/>
      <point x="642" y="-186"/>
      <point x="503" y="-142"/>
      <point x="349" y="-135" type="qcurve"/>
    </contour>
  </outline>
</glyph>
<glyph name="onesuperior" format="2">
  <advance width="769"/>
  <unicode hex="00B9"/>
  <outline>
    <contour>
      <point x="80" y="1287" type="line"/>
      <point x="80" y="1384" type="line"/>
      <point x="525" y="1474" type="line"/>
      <point x="569" y="1474" type="line"/>
      <point x="569" y="684" type="line"/>
      <point x="462" y="684" type="line"/>
      <point x="462" y="1361" type="line"/>
    </contour>
  </outline>
</glyph>
<glyph name="eth" format="2">
  <advance width="1291"/>
  <unicode hex="00F0"/>
  <outline>
    <contour>
      <point x="187" y="1378.0" type="qcurve"/>
      <point x="216" y="1464.0" type="line"/>
      <point x="648" y="1360.0"/>
      <point x="1205.0" y="832"/>
      <point x="1205.0" y="526" type="qcurve"/>
      <point x="1205.0" y="444" type="line"/>
      <point x="1205.0" y="242"/>
      <point x="888.0" y="-20"/>
      <point x="642.0" y="-20" type="qcurve" smooth="yes"/>
      <point x="386.0" y="-20"/>
      <point x="56.0" y="210"/>
      <point x="56.0" y="388" type="qcurve" smooth="yes"/>
      <point x="56.0" y="574"/>
      <point x="380.0" y="815"/>
      <point x="630.0" y="815" type="qcurve" smooth="yes"/>
      <point x="863.0" y="815"/>
      <point x="1163.0" y="643"/>
      <point x="1163.0" y="510" type="qcurve"/>
      <point x="1114.0" y="511" type="line"/>
      <point x="1114.0" y="601"/>
      <point x="849" y="718.0"/>
      <point x="644" y="718.0" type="qcurve" smooth="yes"/>
      <point x="435" y="718.0"/>
      <point x="166.0" y="532"/>
      <point x="166.0" y="388" type="qcurve" smooth="yes"/>
      <point x="166.0" y="252"/>
      <point x="437.0" y="77"/>
      <point x="646.0" y="77" type="qcurve" smooth="yes"/>
      <point x="843.0" y="77"/>
      <point x="1098.0" y="284"/>
      <point x="1098.0" y="444" type="qcurve" smooth="yes"/>
      <point x="1098.0" y="528" type="line" smooth="yes"/>
      <point x="1098.0" y="788"/>
      <point x="585" y="1267.0"/>
    </contour>
    <contour>
      <point x="1114" y="1342.0" type="line"/>
      <point x="314" y="1003.0" type="line"/>
      <point x="261" y="1085.0" type="line"/>
      <point x="1061" y="1423.0" type="line"/>
    </contour>
  </outline>
</glyph>
<glyph name="caron" format="2">
  <advance width="1024"/>
  <unicode hex="02C7"/>
  <outline>
    <contour>
      <point x="458" y="969" type="line"/>
      <point x="200" y="1252" type="line"/>
      <point x="320" y="1252" type="line"/>
      <point x="517" y="1062" type="line"/>
      <point x="712" y="1252" type="line"/>
      <point x="825" y="1252" type="line"/>
      <point x="570" y="969" type="line"/>
    </contour>
  </outline>
</glyph>
<glyph name="breve" format="2">
  <advance width="1022"/>
  <unicode hex="02D8"/>
  <outline>
    <contour>
      <point x="741.0" y="1225.0" type="qcurve"/>
      <point x="826.0" y="1189.0" type="line"/>
      <point x="792.0" y="1110.0"/>
      <point x="631.0" y="964.0"/>
      <point x="511" y="964.0" type="qcurve" smooth="yes"/>
      <point x="393" y="964.0"/>
      <point x="232" y="1110"/>
      <point x="196" y="1189.0" type="qcurve"/>
      <point x="281" y="1225" type="line"/>
      <point x="335" y="1144.0"/>
      <point x="443.0" y="1072.0"/>
      <point x="510" y="1072" type="qcurve" smooth="yes"/>
      <point x="581.0" y="1072.0"/>
      <point x="689.0" y="1144.0"/>
    </contour>
  </outline>
</glyph>
<glyph name="hookabovecomb" format="2">
  <advance width="1024"/>
  <unicode hex="0309"/>
  <outline>
    <contour>
      <point x="384" y="957" type="line"/>
      <point x="384" y="999" type="line" smooth="yes"/>
      <point x="384" y="1043"/>
      <point x="429" y="1076"/>
      <point x="540" y="1086" type="qcurve" smooth="yes"/>
      <point x="597" y="1091"/>
      <point x="659" y="1141.0"/>
      <point x="659" y="1187.0" type="qcurve" smooth="yes"/>
      <point x="659" y="1226.0"/>
      <point x="587" y="1267.0"/>
      <point x="521" y="1267" type="qcurve" smooth="yes"/>
      <point x="448.0" y="1267.0"/>
      <point x="321" y="1239"/>
      <point x="310" y="1231" type="qcurve"/>
      <point x="256" y="1312" type="line"/>
      <point x="292" y="1328"/>
      <point x="445" y="1363"/>
      <point x="527" y="1363" type="qcurve" smooth="yes"/>
      <point x="647" y="1363"/>
      <point x="775" y="1265"/>
      <point x="775" y="1182" type="qcurve" smooth="yes"/>
      <point x="775" y="1096"/>
      <point x="638" y="1003"/>
      <point x="496" y="994" type="qcurve"/>
      <point x="496" y="957" type="line"/>
    </contour>
  </outline>
</glyph>
<glyph name="breveinvertedcomb" format="2">
  <advance width="1024"/>
  <unicode hex="030F"/>
  <outline>
    <contour>
      <point x="281.0" y="964.0" type="qcurve"/>
      <point x="196.0" y="1000.0" type="line"/>
      <point x="232.0" y="1079.0"/>
      <point x="393.0" y="1225.0"/>
      <point x="511.0" y="1225.0" type="qcurve" smooth="yes"/>
      <point x="631.0" y="1225.0"/>
      <point x="792.0" y="1079.0"/>
      <point x="826.0" y="1000.0" type="qcurve"/>
      <point x="741.0" y="964.0" type="line"/>
      <point x="689.0" y="1045.0"/>
      <point x="581.0" y="1117.0"/>
      <point x="510.0" y="1117.0" type="qcurve" smooth="yes"/>
      <point x="443.0" y="1117.0"/>
      <point x="335.0" y="1045.0"/>
    </contour>
  </outline>
</glyph>
<glyph name="Germandbls" format="2">
  <advance width="1541"/>
  <unicode hex="1E9E"/>
  <outline>
    <contour>
      <point x="224" y="1092" type="line" smooth="yes"/>
      <point x="224" y="1306"/>
      <point x="499" y="1536"/>
      <point x="755" y="1536" type="qcurve" smooth="yes"/>
      <point x="997" y="1536"/>
      <point x="1257" y="1405"/>
      <point x="1257" y="1283" type="qcurve" smooth="yes"/>
      <point x="1257" y="1203"/>
      <point x="1174" y="1092"/>
      <point x="1063" y="1016" type="qcurve" smooth="yes"/>
      <point x="946" y="935"/>
      <point x="873.0" y="861.0"/>
      <point x="873.0" y="824.0" type="qcurve" smooth="yes"/>
      <point x="873.0" y="784.0"/>
      <point x="991" y="702"/>
      <point x="1181" y="614" type="qcurve" smooth="yes"/>
      <point x="1351" y="536"/>
      <point x="1478" y="394"/>
      <point x="1478" y="282" type="qcurve"/>
      <point x="1478" y="158"/>
      <point x="1217" y="-28"/>
      <point x="975" y="-28" type="qcurve" smooth="yes"/>
      <point x="697" y="-28"/>
      <point x="447.0" y="136"/>
      <point x="447.0" y="318" type="qcurve" smooth="yes"/>
      <point x="447" y="336" type="line"/>
      <point x="553" y="336" type="line"/>
      <point x="553" y="318" type="line" smooth="yes"/>
      <point x="553" y="187"/>
      <point x="748" y="70"/>
      <point x="965" y="70" type="qcurve" smooth="yes"/>
      <point x="1161" y="70"/>
      <point x="1371" y="194"/>
      <point x="1371" y="302" type="qcurve"/>
      <point x="1371" y="365"/>
      <point x="1263" y="462"/>
      <point x="1119" y="528" type="qcurve" smooth="yes"/>
      <point x="899" y="629"/>
      <point x="763.0" y="742.0"/>
      <point x="763.0" y="817.0" type="qcurve" smooth="yes"/>
      <point x="763.0" y="885.0"/>
      <point x="850" y="987"/>
      <point x="992" y="1084" type="qcurve" smooth="yes"/>
      <point x="1082" y="1146"/>
      <point x="1150" y="1229"/>
      <point x="1150" y="1277" type="qcurve" smooth="yes"/>
      <point x="1150" y="1355"/>
      <point x="943" y="1438"/>
      <point x="751" y="1438" type="qcurve" smooth="yes"/>
      <point x="549" y="1438"/>
      <point x="332" y="1259"/>
      <point x="332" y="1092" type="qcurve" name="hr00"/>
      <point x="332" y="355.0" type="line" smooth="yes"/>
      <point x="332" y="176.0"/>
      <point x="191" y="-16.0"/>
      <point x="59" y="-16.0" type="qcurve" smooth="yes"/>
      <point x="48" y="-16.0"/>
      <point x="26" y="-14.0"/>
      <point x="15" y="-12.0" type="qcurve"/>
      <point x="13" y="86.0" type="line"/>
      <point x="21" y="83.0"/>
      <point x="37" y="81.0"/>
      <point x="44" y="81.0" type="qcurve" smooth="yes"/>
      <point x="131" y="81.0"/>
      <point x="224" y="223.0"/>
      <point x="224" y="355.0" type="qcurve" smooth="yes"/>
    </contour>
  </outline>
</glyph>
<glyph name="dagger" format="2">
  <advance width="1203"/>
  <unicode hex="2020"/>
  <outline>
    <contour>
      <point x="546" y="-274" type="qcurve"/>
      <point x="542" y="8" type="line"/>
      <point x="563" y="748" type="line"/>
      <point x="563" y="892" type="line"/>
      <point x="72" y="892" type="line"/>
      <point x="72" y="985" type="line"/>
      <point x="559" y="985" type="line"/>
      <point x="546" y="1458" type="line"/>
      <point x="657" y="1458" type="line"/>
      <point x="644" y="985" type="line"/>
      <point x="1131" y="985" type="line"/>
      <point x="1131" y="892" type="line"/>
      <point x="640" y="892" type="line"/>
      <point x="640" y="748" type="line"/>
      <point x="661" y="8" type="line"/>
      <point x="657" y="-274" type="line"/>
      <point x="610.0" y="-360.0"/>
      <point x="594" y="-360"/>
    </contour>
  </outline>
</glyph>
<glyph name="guilsinglright" format="2">
  <advance width="652"/>
  <unicode hex="203A"/>
  <guideline x="0.0" y="901.0" angle="0.0" identifier="Amp5Ormvx4"/>
  <guideline x="0.0" y="555.0" angle="0.0" identifier="JDX5vz3jKp"/>
  <outline>
    <contour>
      <point x="76" y="153" type="line"/>
      <point x="423" y="534" type="line"/>
      <point x="76" y="915" type="line"/>
      <point x="183" y="915" type="line"/>
      <point x="544" y="552" type="line"/>
      <point x="544" y="515" type="line"/>
      <point x="183" y="153" type="line"/>
    </contour>
  </outline>
</glyph>
<glyph name="manat" format="2">
  <advance width="1674"/>
  <unicode hex="20BC"/>
  <outline>
    <contour>
      <point x="1534" y="916" type="qcurve" smooth="yes"/>
      <point x="1534" y="0" type="line"/>
      <point x="1422" y="0" type="line"/>
      <point x="1422" y="916" type="line" smooth="yes"/>
      <point x="1422" y="1110"/>
      <point x="1119" y="1318"/>
      <point x="837" y="1318" type="qcurve" smooth="yes"/>
      <point x="553" y="1318"/>
      <point x="250" y="1110"/>
      <point x="252" y="916" type="qcurve" smooth="yes"/>
      <point x="252" y="0" type="line"/>
      <point x="140" y="0" type="line"/>
      <point x="140" y="916" type="line" smooth="yes"/>
      <point x="140" y="1157"/>
      <point x="501" y="1416"/>
      <point x="837" y="1416" type="qcurve" smooth="yes"/>
      <point x="1173" y="1416"/>
      <point x="1534" y="1157"/>
    </contour>
    <contour>
      <point x="892" y="0" type="line"/>
      <point x="782" y="0" type="line"/>
      <point x="782" y="1582" type="line"/>
      <point x="892" y="1582" type="line"/>
    </contour>
  </outline>
</glyph>
<glyph name="greaterequal" format="2">
  <advance width="1170"/>
  <unicode hex="2265"/>
  <outline>
    <contour>
      <point x="184" y="246" type="line"/>
      <point x="184" y="339" type="line"/>
      <point x="868" y="674" type="line"/>
      <point x="184" y="1009" type="line"/>
      <point x="184" y="1102" type="line"/>
      <point x="985" y="716" type="line"/>
      <point x="985" y="632" type="line"/>
    </contour>
    <contour>
      <point x="1040" y="1" type="line"/>
      <point x="150" y="1" type="line"/>
      <point x="150" y="98" type="line"/>
      <point x="1040" y="98" type="line"/>
    </contour>
  </outline>
</glyph>
<glyph name="f_f" format="2">
  <advance width="1200"/>
  <unicode hex="FB00"/>
  <outline>
    <contour>
      <point x="196" y="0" type="line"/>
      <point x="196" y="1200" type="line" smooth="yes"/>
      <point x="196" y="1374"/>
      <point x="386" y="1556"/>
      <point x="550" y="1556" type="qcurve" smooth="yes"/>
      <point x="582" y="1556"/>
      <point x="648" y="1548"/>
      <point x="678" y="1540" type="qcurve"/>
      <point x="668" y="1390" type="line"/>
      <point x="646" y="1394"/>
      <point x="596" y="1400"/>
      <point x="570" y="1400" type="qcurve" smooth="yes"/>
      <point x="480" y="1400"/>
      <point x="382" y="1300"/>
      <point x="382" y="1200" type="qcurve" smooth="yes"/>
      <point x="382" y="992" type="line"/>
      <point x="382" y="970" type="line"/>
      <point x="382" y="0" type="line"/>
    </contour>
    <contour>
      <point x="25" y="910" type="line"/>
      <point x="25" y="1052" type="line"/>
      <point x="266" y="1052" type="line"/>
      <point x="312" y="1052" type="line"/>
      <point x="610" y="1052" type="line"/>
      <point x="610" y="910" type="line"/>
    </contour>
    <contour>
      <point x="796" y="0" type="line"/>
      <point x="796" y="1200" type="line" smooth="yes"/>
      <point x="796" y="1374"/>
      <point x="986" y="1556"/>
      <point x="1150" y="1556" type="qcurve" smooth="yes"/>
      <point x="1182" y="1556"/>
      <point x="1248" y="1548"/>
      <point x="1278" y="1540" type="qcurve"/>
      <point x="1268" y="1390" type="line"/>
      <point x="1246" y="1394"/>
      <point x="1196" y="1400"/>
      <point x="1170" y="1400" type="qcurve" smooth="yes"/>
      <point x="1080" y="1400"/>
      <point x="982" y="1300"/>
      <point x="982" y="1200" type="qcurve" smooth="yes"/>
      <point x="982" y="992" type="line"/>
      <point x="982" y="970" type="line"/>
      <point x="982" y="0" type="line"/>
    </contour>
    <contour>
      <point x="625" y="910" type="line"/>
      <point x="625" y="1052" type="line"/>
      <point x="866" y="1052" type="line"/>
      <point x="912" y="1052" type="line"/>
      <point x="1210" y="1052" type="line"/>
      <point x="1210" y="910" type="line"/>
    </contour>
  </outline>
</glyph>
<glyph name="diagonalbarl" format="2">
  <advance width="629"/>
  <outline>
    <contour>
      <point x="68" y="495" type="line"/>
      <point x="11" y="597" type="line"/>
      <point x="286" y="790" type="line"/>
      <point x="551" y="1009" type="line"/>
      <point x="604" y="910" type="line"/>
      <point x="334" y="716" type="line"/>
    </contour>
  </outline>
</glyph>
<glyph name="dieresiscomb.case" format="2">
  <advance width="1024"/>
  <outline>
    <contour>
      <point x="172" y="1696" type="qcurve" smooth="yes"/>
      <point x="172" y="1734"/>
      <point x="232" y="1782"/>
      <point x="279" y="1782" type="qcurve" smooth="yes"/>
      <point x="326" y="1782"/>
      <point x="387" y="1734"/>
      <point x="387" y="1696" type="qcurve" smooth="yes"/>
      <point x="387" y="1660"/>
      <point x="326" y="1614"/>
      <point x="279" y="1614" type="qcurve" smooth="yes"/>
      <point x="232" y="1614"/>
      <point x="172" y="1660"/>
    </contour>
    <contour>
      <point x="637" y="1694" type="qcurve" smooth="yes"/>
      <point x="637" y="1732"/>
      <point x="697" y="1780"/>
      <point x="744" y="1780" type="qcurve" smooth="yes"/>
      <point x="791" y="1780"/>
      <point x="852" y="1732"/>
      <point x="852" y="1694" type="qcurve" smooth="yes"/>
      <point x="852" y="1658"/>
      <point x="791" y="1612.0"/>
      <point x="744" y="1612.0" type="qcurve" smooth="yes"/>
      <point x="697" y="1612.0"/>
      <point x="637" y="1658"/>
    </contour>
  </outline>
</glyph>
<glyph name="four.prop" format="2">
  <advance width="1398"/>
  <outline>
    <contour>
      <point x="980" y="0" type="line"/>
      <point x="980" y="391" type="line"/>
      <point x="980" y="405" type="line"/>
      <point x="980" y="1290" type="line"/>
      <point x="972" y="1290" type="line"/>
      <point x="243" y="445" type="line"/>
      <point x="1011" y="445" type="line"/>
      <point x="1036" y="445" type="line"/>
      <point x="1325" y="445" type="line"/>
      <point x="1325" y="347" type="line"/>
      <point x="111" y="347" type="line"/>
      <point x="111" y="442" type="line"/>
      <point x="997" y="1456" type="line"/>
      <point x="1091" y="1456" type="line"/>
      <point x="1091" y="0" type="line"/>
    </contour>
  </outline>
</glyph>
<glyph name="ogonekcomb.case" format="2">
  <advance width="1024"/>
  <outline>
    <contour>
      <point x="242" y="-224" type="qcurve" smooth="yes"/>
      <point x="242" y="-157"/>
      <point x="384" y="-21.0"/>
      <point x="516" y="43.0" type="qcurve"/>
      <point x="591" y="3.0" type="line"/>
      <point x="490" y="-52.0"/>
      <point x="365" y="-167.0"/>
      <point x="365" y="-213.0" type="qcurve" smooth="yes"/>
      <point x="365" y="-248.0"/>
      <point x="432" y="-288.0"/>
      <point x="485" y="-288" type="qcurve"/>
      <point x="537" y="-288"/>
      <point x="653" y="-267.0"/>
      <point x="694" y="-251.0" type="qcurve"/>
      <point x="709" y="-338" type="line"/>
      <point x="665" y="-359"/>
      <point x="535" y="-381.0"/>
      <point x="468" y="-381.0" type="qcurve" smooth="yes"/>
      <point x="356" y="-381.0"/>
      <point x="242" y="-290"/>
    </contour>
  </outline>
</glyph>
<glyph name="ringcomb.case" format="2">
  <advance width="1024"/>
  <outline>
    <contour>
      <point x="251" y="1755" type="qcurve"/>
      <point x="251" y="1854"/>
      <point x="398.0" y="1982"/>
      <point x="512.0" y="1982" type="qcurve" smooth="yes"/>
      <point x="626.0" y="1982"/>
      <point x="773" y="1854"/>
      <point x="773" y="1755" type="qcurve" smooth="yes"/>
      <point x="773" y="1658"/>
      <point x="626.0" y="1533"/>
      <point x="512.0" y="1533" type="qcurve" smooth="yes"/>
      <point x="398.0" y="1533"/>
      <point x="251" y="1658"/>
    </contour>
    <contour>
      <point x="344" y="1755" type="qcurve"/>
      <point x="344" y="1696"/>
      <point x="439.0" y="1619"/>
      <point x="512.0" y="1619" type="qcurve" smooth="yes"/>
      <point x="585.0" y="1619"/>
      <point x="680" y="1696"/>
      <point x="680" y="1755" type="qcurve" smooth="yes"/>
      <point x="680" y="1816"/>
      <point x="585.0" y="1895"/>
      <point x="512.0" y="1895" type="qcurve" smooth="yes"/>
      <point x="439.0" y="1895"/>
      <point x="344" y="1816"/>
    </contour>
  </outline>
</glyph>
<glyph name="tildecomb.case" format="2">
  <advance width="1024"/>
  <outline>
    <contour>
      <point x="174" y="1660.0" type="line"/>
      <point x="206" y="1712"/>
      <point x="336" y="1788.0"/>
      <point x="402" y="1788.0" type="qcurve" smooth="yes"/>
      <point x="442" y="1788.0"/>
      <point x="511" y="1760"/>
      <point x="546" y="1740.0" type="qcurve" smooth="yes"/>
      <point x="581" y="1722.0"/>
      <point x="646" y="1690.0"/>
      <point x="682" y="1690.0" type="qcurve" smooth="yes"/>
      <point x="722" y="1690.0"/>
      <point x="794" y="1736"/>
      <point x="816" y="1766.0" type="qcurve"/>
      <point x="887" y="1699" type="line"/>
      <point x="849" y="1640"/>
      <point x="725" y="1586"/>
      <point x="669" y="1586" type="qcurve" smooth="yes"/>
      <point x="621" y="1586"/>
      <point x="542" y="1626.0"/>
      <point x="512" y="1641" type="qcurve" smooth="yes"/>
      <point x="479" y="1658"/>
      <point x="414" y="1680.0"/>
      <point x="387" y="1680.0" type="qcurve" smooth="yes"/>
      <point x="340" y="1680.0"/>
      <point x="252" y="1619"/>
      <point x="235" y="1597.0" type="qcurve"/>
    </contour>
  </outline>
</glyph>
